<?xml version="1.0" encoding="utf-8"?>
<!-- Generator: Adobe Illustrator 24.0.0, SVG Export Plug-In . SVG Version: 6.00 Build 0)  -->
<svg version="1.1" id="Layer_1" xmlns="http://www.w3.org/2000/svg" xmlns:xlink="http://www.w3.org/1999/xlink" x="0px" y="0px"
	 viewBox="0 0 28.3 31.4" style="enable-background:new 0 0 28.3 31.4;" xml:space="preserve">
<style type="text/css">
	.st0{fill:none;stroke:#589BD4;stroke-width:1.5;stroke-linecap:round;stroke-linejoin:round;}
</style>
<g id="Iconly_Curved_Setting" transform="translate(-17.011 347)">
	<g id="Setting" transform="translate(48 371)">
		<path id="Stroke_1-2" class="st0" d="M-16.8-704.9c1.5,0,2.6,1.2,2.6,2.6s-1.2,2.6-2.6,2.6s-2.6-1.2-2.6-2.6c0,0,0,0,0,0
			C-19.4-703.7-18.3-704.9-16.8-704.9C-16.8-704.9-16.8-704.9-16.8-704.9z"/>
		<path id="Stroke_3" class="st0" d="M-3.9-709.8c-1.1-1.9-3.4-2.5-5.3-1.5c0,0,0,0,0,0c-1.2,0.7-2.7,0.3-3.3-0.9
			c-0.2-0.4-0.3-0.8-0.3-1.2c0-2.2-1.7-3.9-3.9-3.9s-3.9,1.7-3.9,3.9c0,1.3-1.1,2.4-2.4,2.5c-0.4,0-0.9-0.1-1.2-0.3
			c-1.9-1.1-4.2-0.5-5.3,1.4c0,0,0,0,0,0c-1.1,1.9-0.4,4.3,1.4,5.4c1.2,0.7,1.6,2.2,0.9,3.4c-0.2,0.4-0.5,0.7-0.9,0.9
			c-1.9,1.1-2.5,3.5-1.4,5.4c1.1,1.9,3.4,2.5,5.3,1.5c0,0,0,0,0,0l0,0c1.2-0.7,2.7-0.3,3.3,0.9c0.2,0.4,0.3,0.8,0.3,1.2
			c0,2.2,1.7,3.9,3.9,3.9s3.9-1.7,3.9-3.9l0,0c0-1.3,1.1-2.4,2.4-2.5c0.4,0,0.9,0.1,1.2,0.3c1.9,1.1,4.2,0.4,5.3-1.4c0,0,0,0,0,0
			c1.1-1.9,0.4-4.3-1.4-5.4l0,0c-1.2-0.7-1.6-2.2-0.9-3.4c0.2-0.4,0.5-0.7,0.9-0.9C-3.5-705.5-2.8-707.9-3.9-709.8z"/>
	</g>
</g>
</svg>
