<?xml version="1.0" encoding="utf-8"?>
<!-- Generator: Adobe Illustrator 24.0.0, SVG Export Plug-In . SVG Version: 6.00 Build 0)  -->
<svg version="1.1" id="Layer_1" xmlns="http://www.w3.org/2000/svg" xmlns:xlink="http://www.w3.org/1999/xlink" x="0px" y="0px"
	 viewBox="0 0 150 150" style="enable-background:new 0 0 150 150;" xml:space="preserve">
<style type="text/css">
	.st0{fill-rule:evenodd;clip-rule:evenodd;fill:none;}
	.st1{fill-rule:evenodd;clip-rule:evenodd;fill:#B4C4D3;}
	.st2{fill-rule:evenodd;clip-rule:evenodd;fill:url(#New_Pattern);}
</style>
<pattern  x="-319.9" y="-219.4" width="69" height="124" patternUnits="userSpaceOnUse" id="New_Pattern" viewBox="0 -135.5 69 124" style="overflow:visible;">
	<g>
		<rect y="-135.5" class="st0" width="69" height="124"/>
		<g>
			<path class="st1" d="M59.9-11c0-0.3,0-0.6,0-0.9c-0.3,0-0.7,0-1,0c-3.6,0-7.2,0-10.8,0c-0.6,0-1-0.2-1.3-0.8
				c-1.8-3.2-3.7-6.4-5.5-9.5c-0.1-0.3-0.3-0.5-0.5-0.8c-0.3,0.2-0.5,0.3-0.8,0.5c2.1,3.7,4.2,7.4,6.3,11c-2.1,3.7-4.3,7.4-6.4,11
				c0.3,0.2,0.5,0.3,0.8,0.5c2.1-3.7,4.2-7.3,6.4-11C51.5-11,55.7-11,59.9-11z"/>
			<path class="st1" d="M55.7-30.8c0.7,0,1.1,0.2,1.4,0.8c1.7,3,3.4,6,5.2,9c0.2,0.4,0.5,0.8,0.7,1.2c0.3-0.2,0.5-0.3,0.8-0.5
				c-2.1-3.7-4.2-7.3-6.3-11c2.1-3.7,4.2-7.3,6.3-11c-0.3-0.2-0.5-0.3-0.8-0.5c-0.2,0.3-0.3,0.5-0.5,0.8c-1.8,3.1-3.6,6.1-5.3,9.2
				c-0.4,0.8-0.9,1-1.8,1c-3-0.1-6,0-8.9,0c-0.8,0-1.5,0-2.3,0c-0.1,0-0.2,0.1-0.2,0.1c0,0.2,0,0.5,0,0.8c0.3,0,0.7,0,1,0
				C48.4-30.8,52.1-30.8,55.7-30.8z"/>
		</g>
		<g>
			<path class="st1" d="M29-22.5c-0.3-0.2-0.5-0.3-0.8-0.4c-0.2,0.3-0.3,0.6-0.5,0.8c-1.8,3.1-3.6,6.3-5.4,9.5
				c-0.3,0.6-0.7,0.8-1.3,0.8c-3.6,0-7.2,0-10.8,0c-0.3,0-0.6,0-1,0c0,0.3,0,0.6,0,0.9c4.2,0,8.5,0,12.7,0c2.1,3.7,4.3,7.4,6.4,11
				c0.3-0.2,0.5-0.3,0.8-0.5c-2.1-3.7-4.2-7.4-6.4-11C24.7-15.2,26.8-18.9,29-22.5z"/>
			<path class="st1" d="M5.3-20.3c0.3,0.2,0.5,0.3,0.8,0.5c0.2-0.3,0.4-0.6,0.6-0.9c1.8-3.1,3.6-6.1,5.3-9.2
				c0.4-0.7,0.8-0.9,1.5-0.9c3.8,0,7.5,0,11.3,0c0.1,0,0.3,0,0.5-0.1c0-0.3,0-0.5,0-0.9c-0.4,0-0.8,0-1.1,0c-3.6,0-7.2,0-10.7,0
				c-0.6,0-1-0.2-1.3-0.7c-1.7-3-3.4-6-5.2-9c-0.3-0.4-0.5-0.9-0.8-1.3c-0.3,0.2-0.5,0.3-0.8,0.5c2.1,3.7,4.2,7.3,6.3,11
				C9.5-27.6,7.4-23.9,5.3-20.3z"/>
		</g>
		<g>
			<path class="st1" d="M46.9-54.2c4.2,0,8.4,0,12.7,0c0,0.3,0,0.6,0,0.8c-0.1,0-0.2,0.1-0.3,0.1c-2.6,0-5.2,0-7.8,0
				c-1.3,0-2.5,0-3.8,0c-0.6,0-1,0.2-1.3,0.7c-1.8,3.2-3.7,6.4-5.5,9.6c-0.1,0.2-0.3,0.5-0.4,0.7c-0.3-0.2-0.5-0.3-0.8-0.5
				c2.1-3.7,4.2-7.3,6.3-11c-2.1-3.7-4.2-7.3-6.3-11c0.3-0.2,0.5-0.3,0.8-0.5C42.7-61.6,44.8-57.9,46.9-54.2z M46.9-53.7l-0.3,0.3
				c0,0,0,0,0,0C46.8-53.5,46.9-53.6,46.9-53.7z"/>
			<path class="st1" d="M28.4-65.2c-0.2,0.3-0.3,0.6-0.5,0.9c-1.7,3-3.4,6-5.2,9c-0.8,1.4-0.3,1.2-2.1,1.2c-3.7,0-7.3,0-11,0
				c-0.1,0-0.2,0-0.3,0.1c0,0.3,0,0.5,0,0.8c0.4,0,0.7,0,1,0c3.6,0,7.3,0,10.9,0c0.5,0,0.9,0.2,1.1,0.7c0.9,1.7,1.9,3.4,2.9,5
				c1,1.8,2.1,3.6,3.1,5.4c0.3-0.2,0.5-0.3,0.8-0.5c-2.1-3.7-4.2-7.4-6.3-11c2.1-3.7,4.2-7.4,6.4-11C28.9-65,28.7-65.1,28.4-65.2z"
				/>
			<path class="st1" d="M63.5-84.5c-0.3-0.2-0.5-0.3-0.8-0.4c-0.2,0.3-0.3,0.6-0.5,0.8c-1.8,3.1-3.6,6.3-5.4,9.5
				c-0.3,0.6-0.7,0.8-1.3,0.8c-3.6,0-7.2,0-10.8,0c-0.3,0-0.6,0-1,0c0,0.3,0,0.6,0,0.9c4.2,0,8.5,0,12.7,0c2.1,3.7,4.3,7.4,6.4,11
				c0.3-0.2,0.5-0.3,0.8-0.5c-2.1-3.7-4.2-7.4-6.4-11C59.2-77.2,61.3-80.9,63.5-84.5z"/>
			<path class="st1" d="M25.4-73c0-0.3,0-0.6,0-0.9c-0.3,0-0.7,0-1,0c-3.6,0-7.2,0-10.8,0c-0.6,0-1-0.2-1.3-0.8
				c-1.8-3.2-3.7-6.4-5.5-9.5c-0.1-0.3-0.3-0.5-0.5-0.8c-0.3,0.2-0.5,0.3-0.8,0.5c2.1,3.7,4.2,7.4,6.3,11c-2.1,3.7-4.3,7.4-6.4,11
				c0.3,0.2,0.5,0.3,0.8,0.5c2.1-3.7,4.2-7.3,6.4-11C17-73,21.2-73,25.4-73z"/>
			<path class="st1" d="M21.2-92.8c0.7,0,1.1,0.2,1.4,0.8c1.7,3,3.4,6,5.2,9c0.2,0.4,0.5,0.8,0.7,1.2c0.3-0.2,0.5-0.3,0.8-0.5
				c-2.1-3.7-4.2-7.3-6.3-11c2.1-3.7,4.2-7.3,6.3-11c-0.3-0.2-0.5-0.3-0.8-0.5c-0.2,0.3-0.3,0.5-0.5,0.8c-1.8,3.1-3.6,6.1-5.3,9.2
				c-0.4,0.8-0.9,1-1.8,1c-3-0.1-6,0-8.9,0c-0.8,0-1.5,0-2.3,0c-0.1,0-0.2,0.1-0.2,0.1c0,0.2,0,0.5,0,0.8c0.3,0,0.7,0,1,0
				C13.9-92.8,17.6-92.8,21.2-92.8z"/>
			<path class="st1" d="M39.8-82.3c0.3,0.2,0.5,0.3,0.8,0.5c0.2-0.3,0.4-0.6,0.6-0.9c1.8-3.1,3.6-6.1,5.3-9.2
				c0.4-0.7,0.8-0.9,1.5-0.9c3.8,0,7.5,0,11.3,0c0.1,0,0.3,0,0.5-0.1c0-0.3,0-0.5,0-0.9c-0.4,0-0.8,0-1.1,0c-3.6,0-7.2,0-10.7,0
				c-0.6,0-1-0.2-1.3-0.7c-1.7-3-3.4-6-5.2-9c-0.3-0.4-0.5-0.9-0.8-1.3c-0.3,0.2-0.5,0.3-0.8,0.5c2.1,3.7,4.2,7.3,6.3,11
				C44-89.6,41.9-85.9,39.8-82.3z"/>
		</g>
		<g>
			<path class="st1" d="M62.9-127.2c-0.2,0.3-0.3,0.6-0.5,0.9c-1.7,3-3.4,6-5.2,9c-0.8,1.4-0.3,1.2-2.1,1.2c-3.7,0-7.3,0-11,0
				c-0.1,0-0.2,0-0.3,0.1c0,0.3,0,0.5,0,0.8c0.4,0,0.7,0,1,0c3.6,0,7.3,0,10.9,0c0.5,0,0.9,0.2,1.1,0.7c0.9,1.7,1.9,3.4,2.9,5
				c1,1.8,2.1,3.6,3.1,5.4c0.3-0.2,0.5-0.3,0.8-0.5c-2.1-3.7-4.2-7.4-6.3-11c2.1-3.7,4.2-7.4,6.4-11C63.4-127,63.2-127.1,62.9-127.2
				z"/>
			<path class="st1" d="M59.9-135c0-0.3,0-0.6,0-0.9c-0.3,0-0.7,0-1,0c-3.6,0-7.2,0-10.8,0c-0.6,0-1-0.2-1.3-0.8
				c-1.8-3.2-3.7-6.4-5.5-9.5c-0.1-0.3-0.3-0.5-0.5-0.8c-0.3,0.2-0.5,0.3-0.8,0.5c2.1,3.7,4.2,7.4,6.3,11c-2.1,3.7-4.3,7.4-6.4,11
				c0.3,0.2,0.5,0.3,0.8,0.5c2.1-3.7,4.2-7.3,6.4-11C51.5-135,55.7-135,59.9-135z"/>
		</g>
		<g>
			<path class="st1" d="M12.4-116.2c4.2,0,8.4,0,12.7,0c0,0.3,0,0.6,0,0.8c-0.1,0-0.2,0.1-0.3,0.1c-2.6,0-5.2,0-7.8,0
				c-1.3,0-2.5,0-3.8,0c-0.6,0-1,0.2-1.3,0.7c-1.8,3.2-3.7,6.4-5.5,9.6c-0.1,0.2-0.3,0.5-0.4,0.7c-0.3-0.2-0.5-0.3-0.8-0.5
				c2.1-3.7,4.2-7.3,6.3-11c-2.1-3.7-4.2-7.3-6.3-11c0.3-0.2,0.5-0.3,0.8-0.5C8.2-123.6,10.3-119.9,12.4-116.2z M12.4-115.7
				l-0.3,0.3c0,0,0,0,0,0C12.3-115.5,12.4-115.6,12.4-115.7z"/>
			<path class="st1" d="M29-146.5c-0.3-0.2-0.5-0.3-0.8-0.4c-0.2,0.3-0.3,0.6-0.5,0.8c-1.8,3.1-3.6,6.3-5.4,9.5
				c-0.3,0.6-0.7,0.8-1.3,0.8c-3.6,0-7.2,0-10.8,0c-0.3,0-0.6,0-1,0c0,0.3,0,0.6,0,0.9c4.2,0,8.5,0,12.7,0c2.1,3.7,4.3,7.4,6.4,11
				c0.3-0.2,0.5-0.3,0.8-0.5c-2.1-3.7-4.2-7.4-6.4-11C24.7-139.2,26.8-142.9,29-146.5z"/>
		</g>
	</g>
</pattern>
<rect x="-5" y="-5" class="st2" width="160" height="160"/>
</svg>
