<?xml version="1.0" encoding="utf-8"?>
<!-- Generator: Adobe Illustrator 24.0.0, SVG Export Plug-In . SVG Version: 6.00 Build 0)  -->
<svg version="1.1" id="Layer_1" xmlns="http://www.w3.org/2000/svg" xmlns:xlink="http://www.w3.org/1999/xlink" x="0px" y="0px"
	 viewBox="0 0 50 50" style="enable-background:new 0 0 50 50;" xml:space="preserve">
<style type="text/css">
	.st0{fill:#589BD4;}
	.st1{fill:#F7F7F7;}
</style>
<g id="Group_1392" transform="translate(-2)">
	<path id="Icon_material-notifications-none" class="st0" d="M26.2,34.4c1,0,1.9-0.9,1.8-1.9h-3.7C24.3,33.5,25.1,34.4,26.2,34.4z
		 M31.7,28.6v-4.9c0-3-1.5-5.5-4.1-6.2v-0.7c0-0.8-0.5-1.4-1.3-1.5c-0.8,0-1.4,0.5-1.5,1.3v0.1v0.7c-2.6,0.7-4.1,3.2-4.1,6.2v4.9
		l-1.8,1.9v1h14.7v-1L31.7,28.6z M29.8,29.6h-7.3v-5.8c0-2.4,1.4-4.4,3.7-4.4s3.7,2,3.7,4.4v5.8H29.8z"/>
	<ellipse class="st0" cx="31.4" cy="20.5" rx="1.8" ry="2"/>
	<path class="st1" d="M34.7,20.5c0-1.9-1.5-3.5-3.3-3.5s-3.3,1.6-3.3,3.5c0,1.8,1.3,3.2,2.9,3.4c0.1,0,0.3,0,0.4,0s0.2,0,0.3,0
		C33.4,23.8,34.7,22.3,34.7,20.5z M31.4,22.5c-1,0-1.8-0.9-1.8-2s0.8-2,1.8-2c1,0,1.8,0.9,1.8,2S32.4,22.5,31.4,22.5z"/>
</g>
</svg>
